<svg width="125" height="75" viewBox="0 0 125 75" fill="none" xmlns="http://www.w3.org/2000/svg">
<path d="M49.6108 14.249C49.1519 14.249 48.7441 14.1831 48.3877 14.0513C48.0312 13.9194 47.7285 13.7339 47.4795 13.4946C47.2305 13.2554 47.0352 12.9746 46.8936 12.6523C46.752 12.3301 46.6665 11.9785 46.6372 11.5977L46.6299 11.4951H47.9482L47.9556 11.5684C47.9849 11.832 48.063 12.0762 48.1899 12.3008C48.3169 12.5205 48.4976 12.6987 48.7319 12.8354C48.9663 12.9673 49.2568 13.0332 49.6035 13.0332C50.1895 13.0332 50.6362 12.8647 50.9438 12.5278C51.2515 12.186 51.4053 11.6929 51.4053 11.0483V3.43115H52.7236V11.063C52.7236 11.7271 52.5991 12.2983 52.3501 12.7769C52.106 13.2505 51.752 13.6143 51.2881 13.8682C50.8242 14.1221 50.2651 14.249 49.6108 14.249ZM57.9019 14.1392C57.3062 14.1392 56.8057 14.0269 56.4004 13.8022C55.9951 13.5728 55.6899 13.2407 55.4849 12.8062C55.2847 12.3667 55.1846 11.8369 55.1846 11.2168V6.10449H56.459V10.9092C56.459 11.6172 56.5957 12.1445 56.8691 12.4912C57.1475 12.8379 57.6016 13.0112 58.2314 13.0112C58.5781 13.0112 58.8833 12.96 59.147 12.8574C59.4155 12.7549 59.6401 12.6084 59.8208 12.418C60.0015 12.2227 60.1357 11.9883 60.2236 11.7148C60.3164 11.4365 60.3628 11.124 60.3628 10.7773V6.10449H61.6372V14H60.3628V12.8208H60.2456C60.1187 13.0991 59.9453 13.3384 59.7256 13.5386C59.5059 13.7339 59.2422 13.8828 58.9346 13.9854C58.6318 14.0879 58.2876 14.1392 57.9019 14.1392ZM64.0176 14V6.10449H65.292V7.29102H65.4092C65.6094 6.87109 65.8975 6.54639 66.2734 6.31689C66.6494 6.08252 67.1279 5.96533 67.709 5.96533C68.5977 5.96533 69.2788 6.21924 69.7524 6.72705C70.231 7.22998 70.4702 7.9502 70.4702 8.8877V14H69.1958V9.19531C69.1958 8.48242 69.0444 7.95508 68.7417 7.61328C68.4438 7.2666 67.98 7.09326 67.3501 7.09326C66.9302 7.09326 66.5664 7.18359 66.2588 7.36426C65.9512 7.54492 65.7119 7.80127 65.541 8.1333C65.375 8.46533 65.292 8.86328 65.292 9.32715V14H64.0176ZM76 14.1392C75.248 14.1392 74.6011 13.9731 74.0591 13.6411C73.522 13.3091 73.1069 12.8403 72.814 12.2349C72.5259 11.6245 72.3818 10.9067 72.3818 10.0815V10.0742C72.3818 9.25879 72.5259 8.54346 72.814 7.92822C73.1069 7.31299 73.5195 6.83203 74.0518 6.48535C74.584 6.13867 75.2065 5.96533 75.9194 5.96533C76.6372 5.96533 77.2524 6.13135 77.7651 6.46338C78.2827 6.79541 78.6782 7.25928 78.9517 7.85498C79.23 8.4458 79.3691 9.13428 79.3691 9.92041V10.4185H73.041V9.40039H78.7173L78.0874 10.3306V9.8252C78.0874 9.20508 77.9946 8.69482 77.8091 8.29443C77.6235 7.89404 77.3672 7.59619 77.04 7.40088C76.7129 7.20068 76.3369 7.10059 75.9121 7.10059C75.4873 7.10059 75.1064 7.20557 74.7695 7.41553C74.4375 7.62061 74.1738 7.92578 73.9785 8.33105C73.7832 8.73633 73.6855 9.23438 73.6855 9.8252V10.3306C73.6855 10.8921 73.7808 11.373 73.9712 11.7734C74.1616 12.1689 74.4326 12.4741 74.7842 12.689C75.1357 12.8989 75.5508 13.0039 76.0293 13.0039C76.3857 13.0039 76.6958 12.9551 76.9595 12.8574C77.2231 12.7598 77.4404 12.6353 77.6113 12.4839C77.7822 12.3325 77.9019 12.1787 77.9702 12.0225L77.9995 11.9565H79.2739L79.2593 12.0151C79.1909 12.2837 79.0688 12.5449 78.8931 12.7988C78.7222 13.0479 78.5 13.2749 78.2266 13.48C77.9531 13.6802 77.6284 13.8413 77.2524 13.9634C76.8813 14.0806 76.4639 14.1392 76 14.1392Z" fill="black"/>
<path d="M4.40057 23.1818C4.37074 22.9299 4.24976 22.7344 4.03764 22.5952C3.82552 22.456 3.56534 22.3864 3.2571 22.3864C3.03172 22.3864 2.83452 22.4228 2.66548 22.4957C2.49811 22.5687 2.36719 22.6689 2.27273 22.7965C2.17992 22.9241 2.13352 23.0691 2.13352 23.2315C2.13352 23.3674 2.16584 23.4843 2.23047 23.582C2.29676 23.6781 2.38127 23.7585 2.48402 23.8232C2.58677 23.8861 2.69448 23.9383 2.80717 23.9798C2.91986 24.0195 3.02344 24.0518 3.1179 24.0767L3.63494 24.2159C3.76752 24.2507 3.91501 24.2988 4.07741 24.3601C4.24148 24.4214 4.39808 24.5051 4.54723 24.6112C4.69804 24.7156 4.82232 24.8498 4.9201 25.0138C5.01787 25.1779 5.06676 25.3793 5.06676 25.6179C5.06676 25.893 4.99467 26.1416 4.8505 26.3636C4.70798 26.5857 4.49917 26.7622 4.22408 26.8931C3.95064 27.024 3.61837 27.0895 3.22727 27.0895C2.86269 27.0895 2.54699 27.0307 2.28018 26.913C2.01503 26.7953 1.80623 26.6313 1.65376 26.4208C1.50296 26.2103 1.41761 25.9659 1.39773 25.6875H2.03409C2.05066 25.8797 2.11529 26.0388 2.22798 26.1648C2.34233 26.2891 2.48651 26.3819 2.66051 26.4432C2.83617 26.5028 3.02509 26.5327 3.22727 26.5327C3.46259 26.5327 3.67389 26.4946 3.86115 26.4183C4.04841 26.3404 4.19673 26.2327 4.30611 26.0952C4.41548 25.956 4.47017 25.7936 4.47017 25.608C4.47017 25.4389 4.42294 25.3014 4.32848 25.1953C4.23402 25.0893 4.10973 25.0031 3.95561 24.9368C3.80149 24.8705 3.63494 24.8125 3.45597 24.7628L2.82955 24.5838C2.43182 24.4695 2.11695 24.3062 1.88494 24.0941C1.65294 23.882 1.53693 23.6044 1.53693 23.2614C1.53693 22.9763 1.61399 22.7277 1.76811 22.5156C1.92389 22.3018 2.13269 22.1361 2.39453 22.0185C2.65803 21.8991 2.95218 21.8395 3.27699 21.8395C3.60511 21.8395 3.89678 21.8983 4.15199 22.016C4.4072 22.132 4.60938 22.2911 4.75852 22.4933C4.90933 22.6954 4.98887 22.925 4.99716 23.1818H4.40057Z" fill="black" fill-opacity="0.5"/>
<path d="M20.6165 21.9091H21.3523L23.0824 26.1349H23.142L24.8722 21.9091H25.608V27H25.0312V23.1321H24.9815L23.3906 27H22.8338L21.2429 23.1321H21.1932V27H20.6165V21.9091Z" fill="black"/>
<path d="M40.3381 22.456V21.9091H44.1562V22.456H42.5554V27H41.9389V22.456H40.3381Z" fill="black"/>
<path d="M60.5412 27L59.1491 21.9091H59.7756L60.8395 26.0554H60.8892L61.973 21.9091H62.669L63.7528 26.0554H63.8026L64.8665 21.9091H65.4929L64.1009 27H63.4645L62.3409 22.9432H62.3011L61.1776 27H60.5412Z" fill="black"/>
<path d="M78.3381 22.456V21.9091H82.1562V22.456H80.5554V27H79.9389V22.456H78.3381Z" fill="black"/>
<path d="M121.401 23.1818C121.371 22.9299 121.25 22.7344 121.038 22.5952C120.826 22.456 120.565 22.3864 120.257 22.3864C120.032 22.3864 119.835 22.4228 119.665 22.4957C119.498 22.5687 119.367 22.6689 119.273 22.7965C119.18 22.9241 119.134 23.0691 119.134 23.2315C119.134 23.3674 119.166 23.4843 119.23 23.582C119.297 23.6781 119.381 23.7585 119.484 23.8232C119.587 23.8861 119.694 23.9383 119.807 23.9798C119.92 24.0195 120.023 24.0518 120.118 24.0767L120.635 24.2159C120.768 24.2507 120.915 24.2988 121.077 24.3601C121.241 24.4214 121.398 24.5051 121.547 24.6112C121.698 24.7156 121.822 24.8498 121.92 25.0138C122.018 25.1779 122.067 25.3793 122.067 25.6179C122.067 25.893 121.995 26.1416 121.85 26.3636C121.708 26.5857 121.499 26.7622 121.224 26.8931C120.951 27.024 120.618 27.0895 120.227 27.0895C119.863 27.0895 119.547 27.0307 119.28 26.913C119.015 26.7953 118.806 26.6313 118.654 26.4208C118.503 26.2103 118.418 25.9659 118.398 25.6875H119.034C119.051 25.8797 119.115 26.0388 119.228 26.1648C119.342 26.2891 119.487 26.3819 119.661 26.4432C119.836 26.5028 120.025 26.5327 120.227 26.5327C120.463 26.5327 120.674 26.4946 120.861 26.4183C121.048 26.3404 121.197 26.2327 121.306 26.0952C121.415 25.956 121.47 25.7936 121.47 25.608C121.47 25.4389 121.423 25.3014 121.328 25.1953C121.234 25.0893 121.11 25.0031 120.956 24.9368C120.801 24.8705 120.635 24.8125 120.456 24.7628L119.83 24.5838C119.432 24.4695 119.117 24.3062 118.885 24.0941C118.653 23.882 118.537 23.6044 118.537 23.2614C118.537 22.9763 118.614 22.7277 118.768 22.5156C118.924 22.3018 119.133 22.1361 119.395 22.0185C119.658 21.8991 119.952 21.8395 120.277 21.8395C120.605 21.8395 120.897 21.8983 121.152 22.016C121.407 22.132 121.609 22.2911 121.759 22.4933C121.909 22.6954 121.989 22.925 121.997 23.1818H121.401Z" fill="black"/>
<path d="M23.3168 32.9091V38H22.7003V33.5554H22.6705L21.4276 34.3807V33.7543L22.7003 32.9091H23.3168Z" fill="black"/>
<path d="M40.527 38V37.5526L42.2074 35.7131C42.4046 35.4976 42.567 35.3104 42.6946 35.1513C42.8222 34.9905 42.9167 34.8397 42.978 34.6989C43.041 34.5563 43.0724 34.4072 43.0724 34.2514C43.0724 34.0724 43.0294 33.9175 42.9432 33.7866C42.8587 33.6557 42.7427 33.5546 42.5952 33.4833C42.4477 33.4121 42.282 33.3764 42.098 33.3764C41.9025 33.3764 41.7318 33.417 41.5859 33.4982C41.4418 33.5778 41.3299 33.6896 41.2504 33.8338C41.1725 33.978 41.1335 34.147 41.1335 34.3409H40.5469C40.5469 34.0426 40.6156 33.7808 40.7532 33.5554C40.8907 33.33 41.078 33.1544 41.315 33.0284C41.5536 32.9025 41.8213 32.8395 42.1179 32.8395C42.4162 32.8395 42.6805 32.9025 42.9109 33.0284C43.1412 33.1544 43.3219 33.3242 43.4528 33.538C43.5837 33.7518 43.6491 33.9896 43.6491 34.2514C43.6491 34.4387 43.6152 34.6218 43.5472 34.8008C43.4809 34.9781 43.3649 35.1761 43.1992 35.3949C43.0352 35.612 42.8073 35.8771 42.5156 36.1903L41.3722 37.4134V37.4531H43.7386V38H40.527Z" fill="black"/>
<path d="M61.2472 38.0696C60.919 38.0696 60.6265 38.0133 60.3697 37.9006C60.1145 37.7879 59.9115 37.6313 59.7607 37.4308C59.6115 37.2286 59.5303 36.9941 59.517 36.7273H60.1435C60.1567 36.8913 60.2131 37.033 60.3125 37.1523C60.4119 37.27 60.542 37.3612 60.7028 37.4258C60.8635 37.4904 61.0417 37.5227 61.2372 37.5227C61.456 37.5227 61.6499 37.4846 61.8189 37.4084C61.9879 37.3321 62.1205 37.2261 62.2166 37.0902C62.3127 36.9543 62.3608 36.7969 62.3608 36.6179C62.3608 36.4306 62.3144 36.2657 62.2216 36.1232C62.1288 35.979 61.9929 35.8664 61.8139 35.7852C61.6349 35.704 61.4162 35.6634 61.1577 35.6634H60.75V35.1165H61.1577C61.3598 35.1165 61.5372 35.08 61.6896 35.0071C61.8438 34.9342 61.9639 34.8314 62.0501 34.6989C62.1379 34.5663 62.1818 34.4105 62.1818 34.2315C62.1818 34.0592 62.1437 33.9092 62.0675 33.7816C61.9912 33.654 61.8835 33.5546 61.7443 33.4833C61.6068 33.4121 61.4444 33.3764 61.2571 33.3764C61.0814 33.3764 60.9157 33.4087 60.7599 33.4734C60.6058 33.5363 60.4799 33.6283 60.3821 33.7493C60.2843 33.8686 60.2313 34.0128 60.223 34.1818H59.6264C59.6364 33.915 59.7167 33.6813 59.8675 33.4808C60.0183 33.2786 60.2156 33.1212 60.4592 33.0085C60.7044 32.8958 60.9737 32.8395 61.267 32.8395C61.5819 32.8395 61.852 32.9033 62.0774 33.0309C62.3028 33.1568 62.476 33.3234 62.5969 33.5305C62.7179 33.7377 62.7784 33.9614 62.7784 34.2017C62.7784 34.4884 62.703 34.7328 62.5522 34.935C62.4031 35.1372 62.2 35.2772 61.9432 35.3551V35.3949C62.2647 35.4479 62.5157 35.5846 62.6964 35.805C62.877 36.0238 62.9673 36.2947 62.9673 36.6179C62.9673 36.8946 62.8919 37.1432 62.7411 37.3636C62.592 37.5824 62.3881 37.7547 62.1296 37.8807C61.8711 38.0066 61.5769 38.0696 61.2472 38.0696Z" fill="black"/>
<path d="M78.4077 36.956V36.4489L80.6449 32.9091H81.0128V33.6946H80.7642L79.0739 36.3693V36.4091H82.0866V36.956H78.4077ZM80.804 38V36.8018V36.5657V32.9091H81.3906V38H80.804Z" fill="#6155F5"/>
<path d="M100.118 38.0696C99.8262 38.0696 99.5636 38.0116 99.3299 37.8956C99.0962 37.7796 98.909 37.6205 98.7681 37.4183C98.6272 37.2161 98.5502 36.9858 98.5369 36.7273H99.1335C99.1567 36.9576 99.2611 37.1482 99.4467 37.299C99.634 37.4482 99.8577 37.5227 100.118 37.5227C100.327 37.5227 100.512 37.4738 100.675 37.3761C100.839 37.2783 100.967 37.1441 101.06 36.9734C101.154 36.801 101.202 36.6063 101.202 36.3892C101.202 36.1671 101.153 35.9691 101.055 35.7951C100.959 35.6194 100.826 35.4811 100.657 35.38C100.488 35.2789 100.295 35.2275 100.078 35.2259C99.9223 35.2242 99.7624 35.2482 99.5984 35.2979C99.4343 35.346 99.2992 35.4081 99.1932 35.4844L98.6165 35.4148L98.9247 32.9091H101.57V33.456H99.4418L99.2628 34.9574H99.2926C99.397 34.8745 99.5279 34.8058 99.6854 34.7511C99.8428 34.6964 100.007 34.669 100.178 34.669C100.489 34.669 100.767 34.7436 101.01 34.8928C101.256 35.0402 101.448 35.2424 101.587 35.4993C101.728 35.7562 101.798 36.0495 101.798 36.3793C101.798 36.7041 101.725 36.9941 101.58 37.2493C101.435 37.5028 101.237 37.7034 100.983 37.8509C100.729 37.9967 100.441 38.0696 100.118 38.0696Z" fill="black"/>
<path d="M120.217 38.0696C120.009 38.0663 119.8 38.0265 119.591 37.9503C119.382 37.8741 119.192 37.7456 119.019 37.565C118.847 37.3827 118.708 37.1366 118.604 36.8267C118.5 36.5152 118.447 36.1241 118.447 35.6534C118.447 35.2027 118.49 34.8033 118.574 34.4553C118.659 34.1056 118.781 33.8114 118.942 33.5728C119.103 33.3325 119.297 33.1502 119.524 33.0259C119.752 32.9016 120.01 32.8395 120.297 32.8395C120.582 32.8395 120.835 32.8967 121.058 33.011C121.281 33.1237 121.464 33.2811 121.604 33.4833C121.745 33.6855 121.836 33.9183 121.878 34.1818H121.271C121.215 33.9531 121.106 33.7634 120.943 33.6126C120.781 33.4618 120.565 33.3864 120.297 33.3864C119.902 33.3864 119.592 33.5579 119.365 33.9009C119.139 34.244 119.026 34.7254 119.024 35.3452H119.064C119.157 35.2043 119.267 35.0842 119.395 34.9847C119.524 34.8836 119.666 34.8058 119.822 34.7511C119.978 34.6964 120.143 34.669 120.317 34.669C120.608 34.669 120.875 34.742 121.117 34.8878C121.359 35.032 121.553 35.2317 121.699 35.4869C121.845 35.7404 121.918 36.0312 121.918 36.3594C121.918 36.6742 121.847 36.9626 121.706 37.2244C121.565 37.4846 121.367 37.6918 121.112 37.8459C120.859 37.9983 120.56 38.0729 120.217 38.0696ZM120.217 37.5227C120.426 37.5227 120.613 37.4705 120.779 37.3661C120.946 37.2617 121.078 37.1217 121.174 36.946C121.272 36.7704 121.321 36.5748 121.321 36.3594C121.321 36.1489 121.274 35.9575 121.179 35.7852C121.087 35.6112 120.958 35.4728 120.794 35.37C120.632 35.2673 120.446 35.2159 120.237 35.2159C120.08 35.2159 119.933 35.2474 119.797 35.3104C119.661 35.3717 119.542 35.4562 119.439 35.5639C119.338 35.6716 119.259 35.7951 119.201 35.9343C119.143 36.0719 119.114 36.2169 119.114 36.3693C119.114 36.5715 119.161 36.7604 119.255 36.9361C119.351 37.1117 119.482 37.2534 119.648 37.3612C119.815 37.4689 120.005 37.5227 120.217 37.5227Z" fill="black"/>
<path d="M1.68608 47L3.96307 42.4957V42.456H1.33807V41.9091H4.59943V42.4858L2.33239 47H1.68608Z" fill="black" fill-opacity="0.5"/>
<path d="M23.1577 47.0696C22.8163 47.0696 22.5147 47.0091 22.2528 46.8881C21.9927 46.7655 21.7897 46.5973 21.6438 46.3835C21.498 46.1681 21.4259 45.9228 21.4276 45.6477C21.4259 45.4323 21.4682 45.2334 21.5543 45.0511C21.6405 44.8672 21.7582 44.7139 21.9073 44.5913C22.0581 44.467 22.2263 44.3883 22.4119 44.3551V44.3253C22.1683 44.2623 21.9744 44.1256 21.8303 43.9151C21.6861 43.703 21.6148 43.4619 21.6165 43.1918C21.6148 42.9332 21.6803 42.7021 21.8129 42.4982C21.9454 42.2944 22.1277 42.1336 22.3597 42.016C22.5934 41.8983 22.8594 41.8395 23.1577 41.8395C23.4527 41.8395 23.7161 41.8983 23.9482 42.016C24.1802 42.1336 24.3625 42.2944 24.495 42.4982C24.6293 42.7021 24.6972 42.9332 24.6989 43.1918C24.6972 43.4619 24.6235 43.703 24.4776 43.9151C24.3335 44.1256 24.142 44.2623 23.9034 44.3253V44.3551C24.0874 44.3883 24.2531 44.467 24.4006 44.5913C24.5481 44.7139 24.6657 44.8672 24.7536 45.0511C24.8414 45.2334 24.8861 45.4323 24.8878 45.6477C24.8861 45.9228 24.8116 46.1681 24.6641 46.3835C24.5182 46.5973 24.3152 46.7655 24.055 46.8881C23.7965 47.0091 23.4974 47.0696 23.1577 47.0696ZM23.1577 46.5227C23.388 46.5227 23.5869 46.4854 23.7543 46.4109C23.9216 46.3363 24.0509 46.2311 24.142 46.0952C24.2332 45.9593 24.2796 45.8002 24.2812 45.6179C24.2796 45.4257 24.2299 45.2558 24.1321 45.1083C24.0343 44.9608 23.9009 44.8448 23.7319 44.7603C23.5645 44.6758 23.3731 44.6335 23.1577 44.6335C22.9406 44.6335 22.7467 44.6758 22.576 44.7603C22.407 44.8448 22.2736 44.9608 22.1758 45.1083C22.0797 45.2558 22.0324 45.4257 22.0341 45.6179C22.0324 45.8002 22.0763 45.9593 22.1658 46.0952C22.257 46.2311 22.3871 46.3363 22.5561 46.4109C22.7251 46.4854 22.9257 46.5227 23.1577 46.5227ZM23.1577 44.1065C23.34 44.1065 23.5015 44.0701 23.6424 43.9972C23.7849 43.9242 23.8968 43.8223 23.978 43.6914C24.0592 43.5605 24.1006 43.4072 24.1023 43.2315C24.1006 43.0592 24.06 42.9092 23.9805 42.7816C23.9009 42.6523 23.7907 42.5529 23.6499 42.4833C23.509 42.4121 23.3449 42.3764 23.1577 42.3764C22.9671 42.3764 22.8005 42.4121 22.658 42.4833C22.5155 42.5529 22.4053 42.6523 22.3274 42.7816C22.2495 42.9092 22.2114 43.0592 22.2131 43.2315C22.2114 43.4072 22.2504 43.5605 22.3299 43.6914C22.4111 43.8223 22.523 43.9242 22.6655 43.9972C22.808 44.0701 22.9721 44.1065 23.1577 44.1065Z" fill="black"/>
<path d="M42.1477 41.8395C42.3565 41.8411 42.5653 41.8809 42.7741 41.9588C42.983 42.0367 43.1735 42.166 43.3459 42.3466C43.5182 42.5256 43.6566 42.77 43.761 43.0799C43.8654 43.3898 43.9176 43.7784 43.9176 44.2457C43.9176 44.6982 43.8745 45.1 43.7884 45.4513C43.7038 45.801 43.5812 46.096 43.4205 46.3363C43.2614 46.5766 43.0675 46.7589 42.8388 46.8832C42.6117 47.0075 42.3549 47.0696 42.0682 47.0696C41.7831 47.0696 41.5288 47.0133 41.305 46.9006C41.083 46.7862 40.9007 46.628 40.7582 46.4258C40.6173 46.2219 40.527 45.9858 40.4872 45.7173H41.0938C41.1484 45.951 41.257 46.1441 41.4194 46.2965C41.5835 46.4473 41.7997 46.5227 42.0682 46.5227C42.4609 46.5227 42.7708 46.3512 42.9979 46.0082C43.2266 45.6651 43.3409 45.1804 43.3409 44.554H43.3011C43.2083 44.6932 43.0981 44.8133 42.9705 44.9144C42.8429 45.0155 42.7012 45.0934 42.5455 45.1481C42.3897 45.2028 42.224 45.2301 42.0483 45.2301C41.7566 45.2301 41.489 45.158 41.2454 45.0138C41.0034 44.868 40.8095 44.6683 40.6637 44.4148C40.5195 44.1596 40.4474 43.8679 40.4474 43.5398C40.4474 43.2282 40.517 42.9432 40.6562 42.6847C40.7971 42.4245 40.9943 42.2173 41.2479 42.0632C41.5031 41.9091 41.803 41.8345 42.1477 41.8395ZM42.1477 42.3864C41.9389 42.3864 41.7508 42.4386 41.5835 42.543C41.4177 42.6457 41.286 42.7849 41.1882 42.9606C41.0921 43.1346 41.044 43.3277 41.044 43.5398C41.044 43.7519 41.0904 43.945 41.1832 44.119C41.2777 44.2913 41.4061 44.4289 41.5685 44.5316C41.7326 44.6327 41.919 44.6832 42.1278 44.6832C42.2853 44.6832 42.4319 44.6526 42.5678 44.5913C42.7037 44.5283 42.8222 44.4429 42.9233 44.3352C43.026 44.2259 43.1064 44.1024 43.1644 43.9648C43.2224 43.8256 43.2514 43.6806 43.2514 43.5298C43.2514 43.331 43.2034 43.1445 43.1072 42.9705C43.0128 42.7965 42.8819 42.6557 42.7145 42.5479C42.5488 42.4402 42.3598 42.3864 42.1477 42.3864Z" fill="black"/>
<path d="M60.3168 41.9091V47H59.7003V42.5554H59.6705L58.4276 43.3807V42.7543L59.7003 41.9091H60.3168ZM63.4414 47.0696C63.0669 47.0696 62.7479 46.9677 62.4844 46.7638C62.2209 46.5584 62.0195 46.2609 61.8803 45.8714C61.7411 45.4804 61.6715 45.008 61.6715 44.4545C61.6715 43.9044 61.7411 43.4345 61.8803 43.0451C62.0212 42.654 62.2234 42.3557 62.4869 42.1502C62.752 41.9431 63.0702 41.8395 63.4414 41.8395C63.8126 41.8395 64.13 41.9431 64.3935 42.1502C64.6586 42.3557 64.8608 42.654 65 43.0451C65.1409 43.4345 65.2113 43.9044 65.2113 44.4545C65.2113 45.008 65.1417 45.4804 65.0025 45.8714C64.8633 46.2609 64.6619 46.5584 64.3984 46.7638C64.1349 46.9677 63.8159 47.0696 63.4414 47.0696ZM63.4414 46.5227C63.8126 46.5227 64.101 46.3437 64.3065 45.9858C64.512 45.6278 64.6147 45.1174 64.6147 44.4545C64.6147 44.0137 64.5675 43.6384 64.473 43.3285C64.3802 43.0186 64.246 42.7824 64.0703 42.62C63.8963 42.4576 63.6867 42.3764 63.4414 42.3764C63.0735 42.3764 62.786 42.5579 62.5788 42.9208C62.3717 43.2821 62.2681 43.7933 62.2681 44.4545C62.2681 44.8954 62.3145 45.2699 62.4073 45.5781C62.5001 45.8864 62.6335 46.1209 62.8075 46.2816C62.9832 46.4424 63.1945 46.5227 63.4414 46.5227Z" fill="black"/>
<path d="M79.3168 41.9091V47H78.7003V42.5554H78.6705L77.4276 43.3807V42.7543L78.7003 41.9091H79.3168ZM82.5707 41.9091V47H81.9542V42.5554H81.9244L80.6815 43.3807V42.7543L81.9542 41.9091H82.5707Z" fill="black"/>
<path d="M99.3168 41.9091V47H98.7003V42.5554H98.6705L97.4276 43.3807V42.7543L98.7003 41.9091H99.3168ZM100.781 47V46.5526L102.461 44.7131C102.658 44.4976 102.821 44.3104 102.949 44.1513C103.076 43.9905 103.171 43.8397 103.232 43.6989C103.295 43.5563 103.326 43.4072 103.326 43.2514C103.326 43.0724 103.283 42.9175 103.197 42.7866C103.113 42.6557 102.997 42.5546 102.849 42.4833C102.702 42.4121 102.536 42.3764 102.352 42.3764C102.156 42.3764 101.986 42.417 101.84 42.4982C101.696 42.5778 101.584 42.6896 101.504 42.8338C101.426 42.978 101.387 43.147 101.387 43.3409H100.801C100.801 43.0426 100.87 42.7808 101.007 42.5554C101.145 42.33 101.332 42.1544 101.569 42.0284C101.808 41.9025 102.075 41.8395 102.372 41.8395C102.67 41.8395 102.934 41.9025 103.165 42.0284C103.395 42.1544 103.576 42.3242 103.707 42.538C103.838 42.7518 103.903 42.9896 103.903 43.2514C103.903 43.4387 103.869 43.6218 103.801 43.8008C103.735 43.9781 103.619 44.1761 103.453 44.3949C103.289 44.612 103.061 44.8771 102.77 45.1903L101.626 46.4134V46.4531H103.993V47H100.781Z" fill="black"/>
<path d="M118.317 41.9091V47H117.7V42.5554H117.67L116.428 43.3807V42.7543L117.7 41.9091H118.317ZM121.501 47.0696C121.173 47.0696 120.88 47.0133 120.624 46.9006C120.368 46.7879 120.165 46.6313 120.015 46.4308C119.865 46.2286 119.784 45.9941 119.771 45.7273H120.397C120.411 45.8913 120.467 46.033 120.566 46.1523C120.666 46.27 120.796 46.3612 120.957 46.4258C121.117 46.4904 121.296 46.5227 121.491 46.5227C121.71 46.5227 121.904 46.4846 122.073 46.4084C122.242 46.3321 122.374 46.2261 122.471 46.0902C122.567 45.9543 122.615 45.7969 122.615 45.6179C122.615 45.4306 122.568 45.2657 122.475 45.1232C122.383 44.979 122.247 44.8664 122.068 44.7852C121.889 44.704 121.67 44.6634 121.412 44.6634H121.004V44.1165H121.412C121.614 44.1165 121.791 44.08 121.944 44.0071C122.098 43.9342 122.218 43.8314 122.304 43.6989C122.392 43.5663 122.436 43.4105 122.436 43.2315C122.436 43.0592 122.398 42.9092 122.321 42.7816C122.245 42.654 122.137 42.5546 121.998 42.4833C121.861 42.4121 121.698 42.3764 121.511 42.3764C121.335 42.3764 121.17 42.4087 121.014 42.4734C120.86 42.5363 120.734 42.6283 120.636 42.7493C120.538 42.8686 120.485 43.0128 120.477 43.1818H119.88C119.89 42.915 119.971 42.6813 120.121 42.4808C120.272 42.2786 120.469 42.1212 120.713 42.0085C120.958 41.8958 121.228 41.8395 121.521 41.8395C121.836 41.8395 122.106 41.9033 122.331 42.0309C122.557 42.1568 122.73 42.3234 122.851 42.5305C122.972 42.7377 123.032 42.9614 123.032 43.2017C123.032 43.4884 122.957 43.7328 122.806 43.935C122.657 44.1372 122.454 44.2772 122.197 44.3551V44.3949C122.519 44.4479 122.77 44.5846 122.95 44.805C123.131 45.0238 123.221 45.2947 123.221 45.6179C123.221 45.8946 123.146 46.1432 122.995 46.3636C122.846 46.5824 122.642 46.7547 122.384 46.8807C122.125 47.0066 121.831 47.0696 121.501 47.0696Z" fill="black"/>
<path d="M2.31676 50.9091V56H1.70028V51.5554H1.67045L0.427557 52.3807V51.7543L1.70028 50.9091H2.31676ZM3.66158 54.956V54.4489L5.89879 50.9091H6.26669V51.6946H6.01811L4.32777 54.3693V54.4091H7.34055V54.956H3.66158ZM6.05788 56V54.8018V54.5657V50.9091H6.64453V56H6.05788Z" fill="black" fill-opacity="0.5"/>
<path d="M22.3168 50.9091V56H21.7003V51.5554H21.6705L20.4276 52.3807V51.7543L21.7003 50.9091H22.3168ZM25.3718 56.0696C25.0801 56.0696 24.8175 56.0116 24.5838 55.8956C24.3501 55.7796 24.1629 55.6205 24.022 55.4183C23.8812 55.2161 23.8041 54.9858 23.7908 54.7273H24.3874C24.4106 54.9576 24.515 55.1482 24.7006 55.299C24.8879 55.4482 25.1116 55.5227 25.3718 55.5227C25.5806 55.5227 25.7662 55.4738 25.9286 55.3761C26.0927 55.2783 26.2211 55.1441 26.3139 54.9734C26.4084 54.801 26.4556 54.6063 26.4556 54.3892C26.4556 54.1671 26.4067 53.9691 26.3089 53.7951C26.2128 53.6194 26.0803 53.4811 25.9112 53.38C25.7422 53.2789 25.5491 53.2275 25.332 53.2259C25.1763 53.2242 25.0163 53.2482 24.8523 53.2979C24.6882 53.346 24.5531 53.4081 24.4471 53.4844L23.8704 53.4148L24.1786 50.9091H26.8235V51.456H24.6957L24.5167 52.9574H24.5465C24.6509 52.8745 24.7818 52.8058 24.9393 52.7511C25.0967 52.6964 25.2608 52.669 25.4315 52.669C25.743 52.669 26.0206 52.7436 26.2642 52.8928C26.5095 53.0402 26.7017 53.2424 26.8409 53.4993C26.9818 53.7562 27.0522 54.0495 27.0522 54.3793C27.0522 54.7041 26.9793 54.9941 26.8335 55.2493C26.6893 55.5028 26.4904 55.7034 26.2369 55.8509C25.9833 55.9967 25.695 56.0696 25.3718 56.0696Z" fill="black"/>
<path d="M41.3168 50.9091V56H40.7003V51.5554H40.6705L39.4276 52.3807V51.7543L40.7003 50.9091H41.3168ZM44.4712 56.0696C44.2624 56.0663 44.0536 56.0265 43.8448 55.9503C43.636 55.8741 43.4454 55.7456 43.2731 55.565C43.1007 55.3827 42.9624 55.1366 42.858 54.8267C42.7536 54.5152 42.7013 54.1241 42.7013 53.6534C42.7013 53.2027 42.7436 52.8033 42.8281 52.4553C42.9126 52.1056 43.0353 51.8114 43.196 51.5728C43.3568 51.3325 43.5507 51.1502 43.7777 51.0259C44.0064 50.9016 44.2641 50.8395 44.5508 50.8395C44.8358 50.8395 45.0894 50.8967 45.3114 51.011C45.5352 51.1237 45.7174 51.2811 45.8583 51.4833C45.9992 51.6855 46.0903 51.9183 46.1317 52.1818H45.5252C45.4689 51.9531 45.3595 51.7634 45.1971 51.6126C45.0347 51.4618 44.8192 51.3864 44.5508 51.3864C44.1564 51.3864 43.8456 51.5579 43.6186 51.9009C43.3932 52.244 43.2797 52.7254 43.2781 53.3452H43.3178C43.4106 53.2043 43.5208 53.0842 43.6484 52.9847C43.7777 52.8836 43.9202 52.8058 44.076 52.7511C44.2318 52.6964 44.3967 52.669 44.5707 52.669C44.8623 52.669 45.1291 52.742 45.3711 52.8878C45.613 53.032 45.8069 53.2317 45.9528 53.4869C46.0986 53.7404 46.1715 54.0312 46.1715 54.3594C46.1715 54.6742 46.1011 54.9626 45.9602 55.2244C45.8194 55.4846 45.6213 55.6918 45.3661 55.8459C45.1126 55.9983 44.8143 56.0729 44.4712 56.0696ZM44.4712 55.5227C44.68 55.5227 44.8673 55.4705 45.033 55.3661C45.2004 55.2617 45.3321 55.1217 45.4283 54.946C45.526 54.7704 45.5749 54.5748 45.5749 54.3594C45.5749 54.1489 45.5277 53.9575 45.4332 53.7852C45.3404 53.6112 45.212 53.4728 45.0479 53.37C44.8855 53.2673 44.6999 53.2159 44.4911 53.2159C44.3337 53.2159 44.187 53.2474 44.0511 53.3104C43.9152 53.3717 43.7959 53.4562 43.6932 53.5639C43.5921 53.6716 43.5125 53.7951 43.4545 53.9343C43.3965 54.0719 43.3675 54.2169 43.3675 54.3693C43.3675 54.5715 43.4148 54.7604 43.5092 54.9361C43.6054 55.1117 43.7363 55.2534 43.902 55.3612C44.0694 55.4689 44.2591 55.5227 44.4712 55.5227Z" fill="black"/>
<path d="M60.3168 50.9091V56H59.7003V51.5554H59.6705L58.4276 52.3807V51.7543L59.7003 50.9091H60.3168ZM61.94 56L64.217 51.4957V51.456H61.592V50.9091H64.8533V51.4858L62.5863 56H61.94Z" fill="black"/>
<path d="M79.3168 50.9091V56H78.7003V51.5554H78.6705L77.4276 52.3807V51.7543L78.7003 50.9091H79.3168ZM82.4116 56.0696C82.0702 56.0696 81.7686 56.0091 81.5067 55.8881C81.2466 55.7655 81.0436 55.5973 80.8977 55.3835C80.7519 55.1681 80.6798 54.9228 80.6815 54.6477C80.6798 54.4323 80.7221 54.2334 80.8082 54.0511C80.8944 53.8672 81.0121 53.7139 81.1612 53.5913C81.312 53.467 81.4802 53.3883 81.6658 53.3551V53.3253C81.4222 53.2623 81.2283 53.1256 81.0842 52.9151C80.94 52.703 80.8687 52.4619 80.8704 52.1918C80.8687 51.9332 80.9342 51.7021 81.0668 51.4982C81.1993 51.2944 81.3816 51.1336 81.6136 51.016C81.8473 50.8983 82.1133 50.8395 82.4116 50.8395C82.7066 50.8395 82.9701 50.8983 83.2021 51.016C83.4341 51.1336 83.6164 51.2944 83.7489 51.4982C83.8832 51.7021 83.9511 51.9332 83.9528 52.1918C83.9511 52.4619 83.8774 52.703 83.7315 52.9151C83.5874 53.1256 83.396 53.2623 83.1573 53.3253V53.3551C83.3413 53.3883 83.507 53.467 83.6545 53.5913C83.802 53.7139 83.9196 53.8672 84.0075 54.0511C84.0953 54.2334 84.14 54.4323 84.1417 54.6477C84.14 54.9228 84.0655 55.1681 83.918 55.3835C83.7721 55.5973 83.5691 55.7655 83.3089 55.8881C83.0504 56.0091 82.7513 56.0696 82.4116 56.0696ZM82.4116 55.5227C82.6419 55.5227 82.8408 55.4854 83.0082 55.4109C83.1755 55.3363 83.3048 55.2311 83.396 55.0952C83.4871 54.9593 83.5335 54.8002 83.5352 54.6179C83.5335 54.4257 83.4838 54.2558 83.386 54.1083C83.2882 53.9608 83.1548 53.8448 82.9858 53.7603C82.8184 53.6758 82.627 53.6335 82.4116 53.6335C82.1945 53.6335 82.0006 53.6758 81.8299 53.7603C81.6609 53.8448 81.5275 53.9608 81.4297 54.1083C81.3336 54.2558 81.2863 54.4257 81.288 54.6179C81.2863 54.8002 81.3303 54.9593 81.4197 55.0952C81.5109 55.2311 81.641 55.3363 81.81 55.4109C81.979 55.4854 82.1796 55.5227 82.4116 55.5227ZM82.4116 53.1065C82.5939 53.1065 82.7554 53.0701 82.8963 52.9972C83.0388 52.9242 83.1507 52.8223 83.2319 52.6914C83.3131 52.5605 83.3545 52.4072 83.3562 52.2315C83.3545 52.0592 83.3139 51.9092 83.2344 51.7816C83.1548 51.6523 83.0446 51.5529 82.9038 51.4833C82.7629 51.4121 82.5988 51.3764 82.4116 51.3764C82.221 51.3764 82.0545 51.4121 81.9119 51.4833C81.7694 51.5529 81.6592 51.6523 81.5813 51.7816C81.5034 51.9092 81.4653 52.0592 81.467 52.2315C81.4653 52.4072 81.5043 52.5605 81.5838 52.6914C81.665 52.8223 81.7769 52.9242 81.9194 52.9972C82.0619 53.0701 82.226 53.1065 82.4116 53.1065Z" fill="black"/>
<path d="M99.3168 50.9091V56H98.7003V51.5554H98.6705L97.4276 52.3807V51.7543L98.7003 50.9091H99.3168ZM102.402 50.8395C102.61 50.8411 102.819 50.8809 103.028 50.9588C103.237 51.0367 103.427 51.166 103.6 51.3466C103.772 51.5256 103.911 51.77 104.015 52.0799C104.119 52.3898 104.172 52.7784 104.172 53.2457C104.172 53.6982 104.128 54.1 104.042 54.4513C103.958 54.801 103.835 55.096 103.674 55.3363C103.515 55.5766 103.321 55.7589 103.093 55.8832C102.866 56.0075 102.609 56.0696 102.322 56.0696C102.037 56.0696 101.783 56.0133 101.559 55.9006C101.337 55.7862 101.155 55.628 101.012 55.4258C100.871 55.2219 100.781 54.9858 100.741 54.7173H101.348C101.402 54.951 101.511 55.1441 101.673 55.2965C101.837 55.4473 102.054 55.5227 102.322 55.5227C102.715 55.5227 103.025 55.3512 103.252 55.0082C103.48 54.6651 103.595 54.1804 103.595 53.554H103.555C103.462 53.6932 103.352 53.8133 103.224 53.9144C103.097 54.0155 102.955 54.0934 102.799 54.1481C102.644 54.2028 102.478 54.2301 102.302 54.2301C102.011 54.2301 101.743 54.158 101.499 54.0138C101.257 53.868 101.063 53.6683 100.918 53.4148C100.773 53.1596 100.701 52.8679 100.701 52.5398C100.701 52.2282 100.771 51.9432 100.91 51.6847C101.051 51.4245 101.248 51.2173 101.502 51.0632C101.757 50.9091 102.057 50.8345 102.402 50.8395ZM102.402 51.3864C102.193 51.3864 102.005 51.4386 101.837 51.543C101.672 51.6457 101.54 51.7849 101.442 51.9606C101.346 52.1346 101.298 52.3277 101.298 52.5398C101.298 52.7519 101.344 52.945 101.437 53.119C101.532 53.2913 101.66 53.4289 101.822 53.5316C101.987 53.6327 102.173 53.6832 102.382 53.6832C102.539 53.6832 102.686 53.6526 102.822 53.5913C102.958 53.5283 103.076 53.4429 103.177 53.3352C103.28 53.2259 103.36 53.1024 103.418 52.9648C103.476 52.8256 103.505 52.6806 103.505 52.5298C103.505 52.331 103.457 52.1445 103.361 51.9705C103.267 51.7965 103.136 51.6557 102.968 51.5479C102.803 51.4402 102.614 51.3864 102.402 51.3864Z" fill="black"/>
<path d="M116.527 56V55.5526L118.207 53.7131C118.405 53.4976 118.567 53.3104 118.695 53.1513C118.822 52.9905 118.917 52.8397 118.978 52.6989C119.041 52.5563 119.072 52.4072 119.072 52.2514C119.072 52.0724 119.029 51.9175 118.943 51.7866C118.859 51.6557 118.743 51.5546 118.595 51.4833C118.448 51.4121 118.282 51.3764 118.098 51.3764C117.902 51.3764 117.732 51.417 117.586 51.4982C117.442 51.5778 117.33 51.6896 117.25 51.8338C117.172 51.978 117.134 52.147 117.134 52.3409H116.547C116.547 52.0426 116.616 51.7808 116.753 51.5554C116.891 51.33 117.078 51.1544 117.315 51.0284C117.554 50.9025 117.821 50.8395 118.118 50.8395C118.416 50.8395 118.681 50.9025 118.911 51.0284C119.141 51.1544 119.322 51.3242 119.453 51.538C119.584 51.7518 119.649 51.9896 119.649 52.2514C119.649 52.4387 119.615 52.6218 119.547 52.8008C119.481 52.9781 119.365 53.1761 119.199 53.3949C119.035 53.612 118.807 53.8771 118.516 54.1903L117.372 55.4134V55.4531H119.739V56H116.527ZM122.426 56.0696C122.051 56.0696 121.732 55.9677 121.469 55.7638C121.205 55.5584 121.004 55.2609 120.865 54.8714C120.725 54.4804 120.656 54.008 120.656 53.4545C120.656 52.9044 120.725 52.4345 120.865 52.0451C121.006 51.654 121.208 51.3557 121.471 51.1502C121.736 50.9431 122.055 50.8395 122.426 50.8395C122.797 50.8395 123.114 50.9431 123.378 51.1502C123.643 51.3557 123.845 51.654 123.984 52.0451C124.125 52.4345 124.196 52.9044 124.196 53.4545C124.196 54.008 124.126 54.4804 123.987 54.8714C123.848 55.2609 123.646 55.5584 123.383 55.7638C123.119 55.9677 122.8 56.0696 122.426 56.0696ZM122.426 55.5227C122.797 55.5227 123.085 55.3437 123.291 54.9858C123.496 54.6278 123.599 54.1174 123.599 53.4545C123.599 53.0137 123.552 52.6384 123.457 52.3285C123.365 52.0186 123.23 51.7824 123.055 51.62C122.881 51.4576 122.671 51.3764 122.426 51.3764C122.058 51.3764 121.77 51.5579 121.563 51.9208C121.356 52.2821 121.252 52.7933 121.252 53.4545C121.252 53.8954 121.299 54.2699 121.392 54.5781C121.484 54.8864 121.618 55.1209 121.792 55.2816C121.968 55.4424 122.179 55.5227 122.426 55.5227Z" fill="black"/>
<path d="M0.526989 65V64.5526L2.20739 62.7131C2.40459 62.4976 2.567 62.3104 2.6946 62.1513C2.82221 61.9905 2.91667 61.8397 2.97798 61.6989C3.04096 61.5563 3.07244 61.4072 3.07244 61.2514C3.07244 61.0724 3.02936 60.9175 2.94318 60.7866C2.85866 60.6557 2.74266 60.5546 2.59517 60.4833C2.44768 60.4121 2.28196 60.3764 2.09801 60.3764C1.90246 60.3764 1.73177 60.417 1.58594 60.4982C1.44176 60.5778 1.3299 60.6896 1.25036 60.8338C1.17247 60.978 1.13352 61.147 1.13352 61.3409H0.546875C0.546875 61.0426 0.615649 60.7808 0.753196 60.5554C0.890743 60.33 1.07801 60.1544 1.31499 60.0284C1.55362 59.9025 1.82126 59.8395 2.1179 59.8395C2.41619 59.8395 2.68052 59.9025 2.91087 60.0284C3.14122 60.1544 3.32185 60.3242 3.45277 60.538C3.58369 60.7518 3.64915 60.9896 3.64915 61.2514C3.64915 61.4387 3.61518 61.6218 3.54723 61.8008C3.48094 61.9781 3.36494 62.1761 3.19922 62.3949C3.03516 62.612 2.80729 62.8771 2.51562 63.1903L1.37216 64.4134V64.4531H3.73864V65H0.526989ZM6.55504 59.9091V65H5.93857V60.5554H5.90874L4.66584 61.3807V60.7543L5.93857 59.9091H6.55504Z" fill="black" fill-opacity="0.5"/>
<path d="M20.527 65V64.5526L22.2074 62.7131C22.4046 62.4976 22.567 62.3104 22.6946 62.1513C22.8222 61.9905 22.9167 61.8397 22.978 61.6989C23.041 61.5563 23.0724 61.4072 23.0724 61.2514C23.0724 61.0724 23.0294 60.9175 22.9432 60.7866C22.8587 60.6557 22.7427 60.5546 22.5952 60.4833C22.4477 60.4121 22.282 60.3764 22.098 60.3764C21.9025 60.3764 21.7318 60.417 21.5859 60.4982C21.4418 60.5778 21.3299 60.6896 21.2504 60.8338C21.1725 60.978 21.1335 61.147 21.1335 61.3409H20.5469C20.5469 61.0426 20.6156 60.7808 20.7532 60.5554C20.8907 60.33 21.078 60.1544 21.315 60.0284C21.5536 59.9025 21.8213 59.8395 22.1179 59.8395C22.4162 59.8395 22.6805 59.9025 22.9109 60.0284C23.1412 60.1544 23.3219 60.3242 23.4528 60.538C23.5837 60.7518 23.6491 60.9896 23.6491 61.2514C23.6491 61.4387 23.6152 61.6218 23.5472 61.8008C23.4809 61.9781 23.3649 62.1761 23.1992 62.3949C23.0352 62.612 22.8073 62.8771 22.5156 63.1903L21.3722 64.4134V64.4531H23.7386V65H20.527ZM24.7653 65V64.5526L26.4457 62.7131C26.6429 62.4976 26.8053 62.3104 26.9329 62.1513C27.0605 61.9905 27.1549 61.8397 27.2163 61.6989C27.2792 61.5563 27.3107 61.4072 27.3107 61.2514C27.3107 61.0724 27.2676 60.9175 27.1815 60.7866C27.0969 60.6557 26.9809 60.5546 26.8335 60.4833C26.686 60.4121 26.5202 60.3764 26.3363 60.3764C26.1407 60.3764 25.9701 60.417 25.8242 60.4982C25.68 60.5778 25.5682 60.6896 25.4886 60.8338C25.4107 60.978 25.3718 61.147 25.3718 61.3409H24.7852C24.7852 61.0426 24.8539 60.7808 24.9915 60.5554C25.129 60.33 25.3163 60.1544 25.5533 60.0284C25.7919 59.9025 26.0595 59.8395 26.3562 59.8395C26.6545 59.8395 26.9188 59.9025 27.1491 60.0284C27.3795 60.1544 27.5601 60.3242 27.6911 60.538C27.822 60.7518 27.8874 60.9896 27.8874 61.2514C27.8874 61.4387 27.8535 61.6218 27.7855 61.8008C27.7192 61.9781 27.6032 62.1761 27.4375 62.3949C27.2734 62.612 27.0456 62.8771 26.7539 63.1903L25.6104 64.4134V64.4531H27.9769V65H24.7653Z" fill="black"/>
<path d="M39.527 65V64.5526L41.2074 62.7131C41.4046 62.4976 41.567 62.3104 41.6946 62.1513C41.8222 61.9905 41.9167 61.8397 41.978 61.6989C42.041 61.5563 42.0724 61.4072 42.0724 61.2514C42.0724 61.0724 42.0294 60.9175 41.9432 60.7866C41.8587 60.6557 41.7427 60.5546 41.5952 60.4833C41.4477 60.4121 41.282 60.3764 41.098 60.3764C40.9025 60.3764 40.7318 60.417 40.5859 60.4982C40.4418 60.5778 40.3299 60.6896 40.2504 60.8338C40.1725 60.978 40.1335 61.147 40.1335 61.3409H39.5469C39.5469 61.0426 39.6156 60.7808 39.7532 60.5554C39.8907 60.33 40.078 60.1544 40.315 60.0284C40.5536 59.9025 40.8213 59.8395 41.1179 59.8395C41.4162 59.8395 41.6805 59.9025 41.9109 60.0284C42.1412 60.1544 42.3219 60.3242 42.4528 60.538C42.5837 60.7518 42.6491 60.9896 42.6491 61.2514C42.6491 61.4387 42.6152 61.6218 42.5472 61.8008C42.4809 61.9781 42.3649 62.1761 42.1992 62.3949C42.0352 62.612 41.8073 62.8771 41.5156 63.1903L40.3722 64.4134V64.4531H42.7386V65H39.527ZM45.4854 65.0696C45.1573 65.0696 44.8648 65.0133 44.608 64.9006C44.3527 64.7879 44.1497 64.6313 43.9989 64.4308C43.8498 64.2286 43.7686 63.9941 43.7553 63.7273H44.3817C44.395 63.8913 44.4513 64.033 44.5508 64.1523C44.6502 64.27 44.7803 64.3612 44.9411 64.4258C45.1018 64.4904 45.2799 64.5227 45.4755 64.5227C45.6942 64.5227 45.8881 64.4846 46.0572 64.4084C46.2262 64.3321 46.3588 64.2261 46.4549 64.0902C46.551 63.9543 46.5991 63.7969 46.5991 63.6179C46.5991 63.4306 46.5527 63.2657 46.4599 63.1232C46.3671 62.979 46.2312 62.8664 46.0522 62.7852C45.8732 62.704 45.6545 62.6634 45.396 62.6634H44.9883V62.1165H45.396C45.5981 62.1165 45.7754 62.08 45.9279 62.0071C46.082 61.9342 46.2022 61.8314 46.2884 61.6989C46.3762 61.5663 46.4201 61.4105 46.4201 61.2315C46.4201 61.0592 46.382 60.9092 46.3058 60.7816C46.2295 60.654 46.1218 60.5546 45.9826 60.4833C45.8451 60.4121 45.6826 60.3764 45.4954 60.3764C45.3197 60.3764 45.154 60.4087 44.9982 60.4734C44.8441 60.5363 44.7182 60.6283 44.6204 60.7493C44.5226 60.8686 44.4696 61.0128 44.4613 61.1818H43.8647C43.8746 60.915 43.955 60.6813 44.1058 60.4808C44.2566 60.2786 44.4538 60.1212 44.6974 60.0085C44.9427 59.8958 45.212 59.8395 45.5053 59.8395C45.8202 59.8395 46.0903 59.9033 46.3157 60.0309C46.5411 60.1568 46.7143 60.3234 46.8352 60.5305C46.9562 60.7377 47.0167 60.9614 47.0167 61.2017C47.0167 61.4884 46.9413 61.7328 46.7905 61.935C46.6413 62.1372 46.4383 62.2772 46.1815 62.3551V62.3949C46.503 62.4479 46.754 62.5846 46.9347 62.805C47.1153 63.0238 47.2056 63.2947 47.2056 63.6179C47.2056 63.8946 47.1302 64.1432 46.9794 64.3636C46.8303 64.5824 46.6264 64.7547 46.3679 64.8807C46.1094 65.0066 45.8152 65.0696 45.4854 65.0696Z" fill="black"/>
<path d="M58.527 65V64.5526L60.2074 62.7131C60.4046 62.4976 60.567 62.3104 60.6946 62.1513C60.8222 61.9905 60.9167 61.8397 60.978 61.6989C61.041 61.5563 61.0724 61.4072 61.0724 61.2514C61.0724 61.0724 61.0294 60.9175 60.9432 60.7866C60.8587 60.6557 60.7427 60.5546 60.5952 60.4833C60.4477 60.4121 60.282 60.3764 60.098 60.3764C59.9025 60.3764 59.7318 60.417 59.5859 60.4982C59.4418 60.5778 59.3299 60.6896 59.2504 60.8338C59.1725 60.978 59.1335 61.147 59.1335 61.3409H58.5469C58.5469 61.0426 58.6156 60.7808 58.7532 60.5554C58.8907 60.33 59.078 60.1544 59.315 60.0284C59.5536 59.9025 59.8213 59.8395 60.1179 59.8395C60.4162 59.8395 60.6805 59.9025 60.9109 60.0284C61.1412 60.1544 61.3219 60.3242 61.4528 60.538C61.5837 60.7518 61.6491 60.9896 61.6491 61.2514C61.6491 61.4387 61.6152 61.6218 61.5472 61.8008C61.4809 61.9781 61.3649 62.1761 61.1992 62.3949C61.0352 62.612 60.8073 62.8771 60.5156 63.1903L59.3722 64.4134V64.4531H61.7386V65H58.527ZM62.5366 63.956V63.4489L64.7738 59.9091H65.1417V60.6946H64.8931L63.2028 63.3693V63.4091H66.2156V63.956H62.5366ZM64.9329 65V63.8018V63.5657V59.9091H65.5195V65H64.9329Z" fill="black"/>
<path d="M77.527 65V64.5526L79.2074 62.7131C79.4046 62.4976 79.567 62.3104 79.6946 62.1513C79.8222 61.9905 79.9167 61.8397 79.978 61.6989C80.041 61.5563 80.0724 61.4072 80.0724 61.2514C80.0724 61.0724 80.0294 60.9175 79.9432 60.7866C79.8587 60.6557 79.7427 60.5546 79.5952 60.4833C79.4477 60.4121 79.282 60.3764 79.098 60.3764C78.9025 60.3764 78.7318 60.417 78.5859 60.4982C78.4418 60.5778 78.3299 60.6896 78.2504 60.8338C78.1725 60.978 78.1335 61.147 78.1335 61.3409H77.5469C77.5469 61.0426 77.6156 60.7808 77.7532 60.5554C77.8907 60.33 78.078 60.1544 78.315 60.0284C78.5536 59.9025 78.8213 59.8395 79.1179 59.8395C79.4162 59.8395 79.6805 59.9025 79.9109 60.0284C80.1412 60.1544 80.3219 60.3242 80.4528 60.538C80.5837 60.7518 80.6491 60.9896 80.6491 61.2514C80.6491 61.4387 80.6152 61.6218 80.5472 61.8008C80.4809 61.9781 80.3649 62.1761 80.1992 62.3949C80.0352 62.612 79.8073 62.8771 79.5156 63.1903L78.3722 64.4134V64.4531H80.7386V65H77.527ZM83.3562 65.0696C83.0645 65.0696 82.8018 65.0116 82.5682 64.8956C82.3345 64.7796 82.1473 64.6205 82.0064 64.4183C81.8655 64.2161 81.7885 63.9858 81.7752 63.7273H82.3718C82.395 63.9576 82.4994 64.1482 82.685 64.299C82.8723 64.4482 83.096 64.5227 83.3562 64.5227C83.565 64.5227 83.7506 64.4738 83.913 64.3761C84.0771 64.2783 84.2055 64.1441 84.2983 63.9734C84.3928 63.801 84.44 63.6063 84.44 63.3892C84.44 63.1671 84.3911 62.9691 84.2933 62.7951C84.1972 62.6194 84.0646 62.4811 83.8956 62.38C83.7266 62.2789 83.5335 62.2275 83.3164 62.2259C83.1606 62.2242 83.0007 62.2482 82.8366 62.2979C82.6726 62.346 82.5375 62.4081 82.4315 62.4844L81.8548 62.4148L82.163 59.9091H84.8079V60.456H82.68L82.5011 61.9574H82.5309C82.6353 61.8745 82.7662 61.8058 82.9237 61.7511C83.0811 61.6964 83.2451 61.669 83.4158 61.669C83.7274 61.669 84.005 61.7436 84.2486 61.8928C84.4938 62.0402 84.6861 62.2424 84.8253 62.4993C84.9661 62.7562 85.0366 63.0495 85.0366 63.3793C85.0366 63.7041 84.9637 63.9941 84.8178 64.2493C84.6737 64.5028 84.4748 64.7034 84.2212 64.8509C83.9677 64.9967 83.6793 65.0696 83.3562 65.0696Z" fill="black"/>
<path d="M97.527 65V64.5526L99.2074 62.7131C99.4046 62.4976 99.567 62.3104 99.6946 62.1513C99.8222 61.9905 99.9167 61.8397 99.978 61.6989C100.041 61.5563 100.072 61.4072 100.072 61.2514C100.072 61.0724 100.029 60.9175 99.9432 60.7866C99.8587 60.6557 99.7427 60.5546 99.5952 60.4833C99.4477 60.4121 99.282 60.3764 99.098 60.3764C98.9025 60.3764 98.7318 60.417 98.5859 60.4982C98.4418 60.5778 98.3299 60.6896 98.2504 60.8338C98.1725 60.978 98.1335 61.147 98.1335 61.3409H97.5469C97.5469 61.0426 97.6156 60.7808 97.7532 60.5554C97.8907 60.33 98.078 60.1544 98.315 60.0284C98.5536 59.9025 98.8213 59.8395 99.1179 59.8395C99.4162 59.8395 99.6805 59.9025 99.9109 60.0284C100.141 60.1544 100.322 60.3242 100.453 60.538C100.584 60.7518 100.649 60.9896 100.649 61.2514C100.649 61.4387 100.615 61.6218 100.547 61.8008C100.481 61.9781 100.365 62.1761 100.199 62.3949C100.035 62.612 99.8073 62.8771 99.5156 63.1903L98.3722 64.4134V64.4531H100.739V65H97.527ZM103.456 65.0696C103.247 65.0663 103.038 65.0265 102.829 64.9503C102.62 64.8741 102.43 64.7456 102.257 64.565C102.085 64.3827 101.947 64.1366 101.842 63.8267C101.738 63.5152 101.686 63.1241 101.686 62.6534C101.686 62.2027 101.728 61.8033 101.812 61.4553C101.897 61.1056 102.02 60.8114 102.18 60.5728C102.341 60.3325 102.535 60.1502 102.762 60.0259C102.991 59.9016 103.248 59.8395 103.535 59.8395C103.82 59.8395 104.074 59.8967 104.296 60.011C104.52 60.1237 104.702 60.2811 104.843 60.4833C104.984 60.6855 105.075 60.9183 105.116 61.1818H104.51C104.453 60.9531 104.344 60.7634 104.181 60.6126C104.019 60.4618 103.804 60.3864 103.535 60.3864C103.141 60.3864 102.83 60.5579 102.603 60.9009C102.378 61.244 102.264 61.7254 102.262 62.3452H102.302C102.395 62.2043 102.505 62.0842 102.633 61.9847C102.762 61.8836 102.905 61.8058 103.06 61.7511C103.216 61.6964 103.381 61.669 103.555 61.669C103.847 61.669 104.114 61.742 104.355 61.8878C104.597 62.032 104.791 62.2317 104.937 62.4869C105.083 62.7404 105.156 63.0312 105.156 63.3594C105.156 63.6742 105.085 63.9626 104.945 64.2244C104.804 64.4846 104.606 64.6918 104.35 64.8459C104.097 64.9983 103.799 65.0729 103.456 65.0696ZM103.456 64.5227C103.664 64.5227 103.852 64.4705 104.017 64.3661C104.185 64.2617 104.317 64.1217 104.413 63.946C104.51 63.7704 104.559 63.5748 104.559 63.3594C104.559 63.1489 104.512 62.9575 104.418 62.7852C104.325 62.6112 104.196 62.4728 104.032 62.37C103.87 62.2673 103.684 62.2159 103.475 62.2159C103.318 62.2159 103.171 62.2474 103.036 62.3104C102.9 62.3717 102.78 62.4562 102.678 62.5639C102.576 62.6716 102.497 62.7951 102.439 62.9343C102.381 63.0719 102.352 63.2169 102.352 63.3693C102.352 63.5715 102.399 63.7604 102.494 63.9361C102.59 64.1117 102.721 64.2534 102.886 64.3612C103.054 64.4689 103.243 64.5227 103.456 64.5227Z" fill="black"/>
<path d="M116.527 65V64.5526L118.207 62.7131C118.405 62.4976 118.567 62.3104 118.695 62.1513C118.822 61.9905 118.917 61.8397 118.978 61.6989C119.041 61.5563 119.072 61.4072 119.072 61.2514C119.072 61.0724 119.029 60.9175 118.943 60.7866C118.859 60.6557 118.743 60.5546 118.595 60.4833C118.448 60.4121 118.282 60.3764 118.098 60.3764C117.902 60.3764 117.732 60.417 117.586 60.4982C117.442 60.5778 117.33 60.6896 117.25 60.8338C117.172 60.978 117.134 61.147 117.134 61.3409H116.547C116.547 61.0426 116.616 60.7808 116.753 60.5554C116.891 60.33 117.078 60.1544 117.315 60.0284C117.554 59.9025 117.821 59.8395 118.118 59.8395C118.416 59.8395 118.681 59.9025 118.911 60.0284C119.141 60.1544 119.322 60.3242 119.453 60.538C119.584 60.7518 119.649 60.9896 119.649 61.2514C119.649 61.4387 119.615 61.6218 119.547 61.8008C119.481 61.9781 119.365 62.1761 119.199 62.3949C119.035 62.612 118.807 62.8771 118.516 63.1903L117.372 64.4134V64.4531H119.739V65H116.527ZM120.924 65L123.201 60.4957V60.456H120.576V59.9091H123.838V60.4858L121.571 65H120.924Z" fill="black"/>
<path d="M0.526989 74V73.5526L2.20739 71.7131C2.40459 71.4976 2.567 71.3104 2.6946 71.1513C2.82221 70.9905 2.91667 70.8397 2.97798 70.6989C3.04096 70.5563 3.07244 70.4072 3.07244 70.2514C3.07244 70.0724 3.02936 69.9175 2.94318 69.7866C2.85866 69.6557 2.74266 69.5546 2.59517 69.4833C2.44768 69.4121 2.28196 69.3764 2.09801 69.3764C1.90246 69.3764 1.73177 69.417 1.58594 69.4982C1.44176 69.5778 1.3299 69.6896 1.25036 69.8338C1.17247 69.978 1.13352 70.147 1.13352 70.3409H0.546875C0.546875 70.0426 0.615649 69.7808 0.753196 69.5554C0.890743 69.33 1.07801 69.1544 1.31499 69.0284C1.55362 68.9025 1.82126 68.8395 2.1179 68.8395C2.41619 68.8395 2.68052 68.9025 2.91087 69.0284C3.14122 69.1544 3.32185 69.3242 3.45277 69.538C3.58369 69.7518 3.64915 69.9896 3.64915 70.2514C3.64915 70.4387 3.61518 70.6218 3.54723 70.8008C3.48094 70.9781 3.36494 71.1761 3.19922 71.3949C3.03516 71.612 2.80729 71.8771 2.51562 72.1903L1.37216 73.4134V73.4531H3.73864V74H0.526989ZM6.39595 74.0696C6.05457 74.0696 5.75296 74.0091 5.49112 73.8881C5.23094 73.7655 5.02794 73.5973 4.8821 73.3835C4.73627 73.1681 4.66418 72.9228 4.66584 72.6477C4.66418 72.4323 4.70644 72.2334 4.79261 72.0511C4.87879 71.8672 4.99645 71.7139 5.1456 71.5913C5.2964 71.467 5.46461 71.3883 5.65021 71.3551V71.3253C5.40661 71.2623 5.21271 71.1256 5.06854 70.9151C4.92436 70.703 4.8531 70.4619 4.85476 70.1918C4.8531 69.9332 4.91856 69.7021 5.05114 69.4982C5.18371 69.2944 5.366 69.1336 5.59801 69.016C5.83168 68.8983 6.09766 68.8395 6.39595 68.8395C6.69093 68.8395 6.95443 68.8983 7.18643 69.016C7.41844 69.1336 7.60073 69.2944 7.73331 69.4982C7.86754 69.7021 7.93549 69.9332 7.93715 70.1918C7.93549 70.4619 7.86174 70.703 7.71591 70.9151C7.57173 71.1256 7.38033 71.2623 7.14169 71.3253V71.3551C7.32564 71.3883 7.49136 71.467 7.63885 71.5913C7.78634 71.7139 7.904 71.8672 7.99183 72.0511C8.07966 72.2334 8.12441 72.4323 8.12607 72.6477C8.12441 72.9228 8.04983 73.1681 7.90234 73.3835C7.75651 73.5973 7.5535 73.7655 7.29332 73.8881C7.0348 74.0091 6.73568 74.0696 6.39595 74.0696ZM6.39595 73.5227C6.6263 73.5227 6.82517 73.4854 6.99254 73.4109C7.15992 73.3363 7.28918 73.2311 7.38033 73.0952C7.47147 72.9593 7.51787 72.8002 7.51953 72.6179C7.51787 72.4257 7.46816 72.2558 7.37038 72.1083C7.27261 71.9608 7.1392 71.8448 6.97017 71.7603C6.80279 71.6758 6.61139 71.6335 6.39595 71.6335C6.17886 71.6335 5.98497 71.6758 5.81428 71.7603C5.64524 71.8448 5.51184 71.9608 5.41406 72.1083C5.31795 72.2558 5.27071 72.4257 5.27237 72.6179C5.27071 72.8002 5.31463 72.9593 5.40412 73.0952C5.49527 73.2311 5.62536 73.3363 5.79439 73.4109C5.96342 73.4854 6.16394 73.5227 6.39595 73.5227ZM6.39595 71.1065C6.57824 71.1065 6.73982 71.0701 6.88068 70.9972C7.0232 70.9242 7.13506 70.8223 7.21626 70.6914C7.29747 70.5605 7.3389 70.4072 7.34055 70.2315C7.3389 70.0592 7.2983 69.9092 7.21875 69.7816C7.1392 69.6523 7.029 69.5529 6.88814 69.4833C6.74728 69.4121 6.58322 69.3764 6.39595 69.3764C6.20537 69.3764 6.03883 69.4121 5.89631 69.4833C5.75379 69.5529 5.64358 69.6523 5.5657 69.7816C5.48781 69.9092 5.44969 70.0592 5.45135 70.2315C5.44969 70.4072 5.48864 70.5605 5.56818 70.6914C5.64938 70.8223 5.76125 70.9242 5.90376 70.9972C6.04628 71.0701 6.21035 71.1065 6.39595 71.1065Z" fill="black" fill-opacity="0.5"/>
<path d="M20.527 74V73.5526L22.2074 71.7131C22.4046 71.4976 22.567 71.3104 22.6946 71.1513C22.8222 70.9905 22.9167 70.8397 22.978 70.6989C23.041 70.5563 23.0724 70.4072 23.0724 70.2514C23.0724 70.0724 23.0294 69.9175 22.9432 69.7866C22.8587 69.6557 22.7427 69.5546 22.5952 69.4833C22.4477 69.4121 22.282 69.3764 22.098 69.3764C21.9025 69.3764 21.7318 69.417 21.5859 69.4982C21.4418 69.5778 21.3299 69.6896 21.2504 69.8338C21.1725 69.978 21.1335 70.147 21.1335 70.3409H20.5469C20.5469 70.0426 20.6156 69.7808 20.7532 69.5554C20.8907 69.33 21.078 69.1544 21.315 69.0284C21.5536 68.9025 21.8213 68.8395 22.1179 68.8395C22.4162 68.8395 22.6805 68.9025 22.9109 69.0284C23.1412 69.1544 23.3219 69.3242 23.4528 69.538C23.5837 69.7518 23.6491 69.9896 23.6491 70.2514C23.6491 70.4387 23.6152 70.6218 23.5472 70.8008C23.4809 70.9781 23.3649 71.1761 23.1992 71.3949C23.0352 71.612 22.8073 71.8771 22.5156 72.1903L21.3722 73.4134V73.4531H23.7386V74H20.527ZM26.386 68.8395C26.5948 68.8411 26.8036 68.8809 27.0124 68.9588C27.2212 69.0367 27.4118 69.166 27.5842 69.3466C27.7565 69.5256 27.8949 69.77 27.9993 70.0799C28.1037 70.3898 28.1559 70.7784 28.1559 71.2457C28.1559 71.6982 28.1128 72.1 28.0266 72.4513C27.9421 72.801 27.8195 73.096 27.6587 73.3363C27.4996 73.5766 27.3058 73.7589 27.0771 73.8832C26.85 74.0075 26.5932 74.0696 26.3065 74.0696C26.0214 74.0696 25.767 74.0133 25.5433 73.9006C25.3213 73.7862 25.139 73.628 24.9964 73.4258C24.8556 73.2219 24.7653 72.9858 24.7255 72.7173H25.332C25.3867 72.951 25.4953 73.1441 25.6577 73.2965C25.8217 73.4473 26.038 73.5227 26.3065 73.5227C26.6992 73.5227 27.0091 73.3512 27.2362 73.0082C27.4648 72.6651 27.5792 72.1804 27.5792 71.554H27.5394C27.4466 71.6932 27.3364 71.8133 27.2088 71.9144C27.0812 72.0155 26.9395 72.0934 26.7837 72.1481C26.628 72.2028 26.4622 72.2301 26.2866 72.2301C25.9949 72.2301 25.7273 72.158 25.4837 72.0138C25.2417 71.868 25.0478 71.6683 24.902 71.4148C24.7578 71.1596 24.6857 70.8679 24.6857 70.5398C24.6857 70.2282 24.7553 69.9432 24.8945 69.6847C25.0354 69.4245 25.2326 69.2173 25.4862 69.0632C25.7414 68.9091 26.0413 68.8345 26.386 68.8395ZM26.386 69.3864C26.1772 69.3864 25.9891 69.4386 25.8217 69.543C25.656 69.6457 25.5243 69.7849 25.4265 69.9606C25.3304 70.1346 25.2823 70.3277 25.2823 70.5398C25.2823 70.7519 25.3287 70.945 25.4215 71.119C25.516 71.2913 25.6444 71.4289 25.8068 71.5316C25.9709 71.6327 26.1573 71.6832 26.3661 71.6832C26.5236 71.6832 26.6702 71.6526 26.8061 71.5913C26.942 71.5283 27.0605 71.4429 27.1616 71.3352C27.2643 71.2259 27.3447 71.1024 27.4027 70.9648C27.4607 70.8256 27.4897 70.6806 27.4897 70.5298C27.4897 70.331 27.4416 70.1445 27.3455 69.9705C27.2511 69.7965 27.1201 69.6557 26.9528 69.5479C26.7871 69.4402 26.5981 69.3864 26.386 69.3864Z" fill="black"/>
<path d="M41.2472 74.0696C40.919 74.0696 40.6265 74.0133 40.3697 73.9006C40.1145 73.7879 39.9115 73.6313 39.7607 73.4308C39.6115 73.2286 39.5303 72.9941 39.517 72.7273H40.1435C40.1567 72.8913 40.2131 73.033 40.3125 73.1523C40.4119 73.27 40.542 73.3612 40.7028 73.4258C40.8635 73.4904 41.0417 73.5227 41.2372 73.5227C41.456 73.5227 41.6499 73.4846 41.8189 73.4084C41.9879 73.3321 42.1205 73.2261 42.2166 73.0902C42.3127 72.9543 42.3608 72.7969 42.3608 72.6179C42.3608 72.4306 42.3144 72.2657 42.2216 72.1232C42.1288 71.979 41.9929 71.8664 41.8139 71.7852C41.6349 71.704 41.4162 71.6634 41.1577 71.6634H40.75V71.1165H41.1577C41.3598 71.1165 41.5372 71.08 41.6896 71.0071C41.8438 70.9342 41.9639 70.8314 42.0501 70.6989C42.1379 70.5663 42.1818 70.4105 42.1818 70.2315C42.1818 70.0592 42.1437 69.9092 42.0675 69.7816C41.9912 69.654 41.8835 69.5546 41.7443 69.4833C41.6068 69.4121 41.4444 69.3764 41.2571 69.3764C41.0814 69.3764 40.9157 69.4087 40.7599 69.4734C40.6058 69.5363 40.4799 69.6283 40.3821 69.7493C40.2843 69.8686 40.2313 70.0128 40.223 70.1818H39.6264C39.6364 69.915 39.7167 69.6813 39.8675 69.4808C40.0183 69.2786 40.2156 69.1212 40.4592 69.0085C40.7044 68.8958 40.9737 68.8395 41.267 68.8395C41.5819 68.8395 41.852 68.9033 42.0774 69.0309C42.3028 69.1568 42.476 69.3234 42.5969 69.5305C42.7179 69.7377 42.7784 69.9614 42.7784 70.2017C42.7784 70.4884 42.703 70.7328 42.5522 70.935C42.4031 71.1372 42.2 71.2772 41.9432 71.3551V71.3949C42.2647 71.4479 42.5157 71.5846 42.6964 71.805C42.877 72.0238 42.9673 72.2947 42.9673 72.6179C42.9673 72.8946 42.8919 73.1432 42.7411 73.3636C42.592 73.5824 42.3881 73.7547 42.1296 73.8807C41.8711 74.0066 41.5769 74.0696 41.2472 74.0696ZM45.6445 74.0696C45.27 74.0696 44.951 73.9677 44.6875 73.7638C44.424 73.5584 44.2227 73.2609 44.0835 72.8714C43.9442 72.4804 43.8746 72.008 43.8746 71.4545C43.8746 70.9044 43.9442 70.4345 44.0835 70.0451C44.2243 69.654 44.4265 69.3557 44.69 69.1502C44.9551 68.9431 45.2733 68.8395 45.6445 68.8395C46.0157 68.8395 46.3331 68.9431 46.5966 69.1502C46.8617 69.3557 47.0639 69.654 47.2031 70.0451C47.344 70.4345 47.4144 70.9044 47.4144 71.4545C47.4144 72.008 47.3448 72.4804 47.2056 72.8714C47.0664 73.2609 46.8651 73.5584 46.6016 73.7638C46.3381 73.9677 46.0191 74.0696 45.6445 74.0696ZM45.6445 73.5227C46.0157 73.5227 46.3041 73.3437 46.5096 72.9858C46.7151 72.6278 46.8178 72.1174 46.8178 71.4545C46.8178 71.0137 46.7706 70.6384 46.6761 70.3285C46.5833 70.0186 46.4491 69.7824 46.2734 69.62C46.0994 69.4576 45.8898 69.3764 45.6445 69.3764C45.2766 69.3764 44.9891 69.5579 44.782 69.9208C44.5748 70.2821 44.4712 70.7933 44.4712 71.4545C44.4712 71.8954 44.5176 72.2699 44.6104 72.5781C44.7032 72.8864 44.8366 73.1209 45.0107 73.2816C45.1863 73.4424 45.3976 73.5227 45.6445 73.5227Z" fill="black"/>
<path d="M97.6165 27V21.9091H100.669V22.456H98.233V24.1761H100.44V24.723H98.233V27H97.6165Z" fill="black"/>
</svg>
